<svg id="Слой_1" data-name="Слой 1" xmlns="http://www.w3.org/2000/svg" viewBox="0 0 229.67 55.1"><defs><style>.cls-1{fill:#fff;}.cls-2{fill:#5fbcff;}</style></defs><path class="cls-1" d="M132.94,39.43c-.09.62-.15,1.19-.26,1.74a1.12,1.12,0,0,1-1.12,1c-1.26.16-2.53.31-3.8.45s-2.66.31-4,.42c-1.78.14-3.57.24-5.35.35a1.89,1.89,0,0,1-1.84-1.06,10.86,10.86,0,0,1-1.2-3.53,31.26,31.26,0,0,1-.38-5c0-1.73-.1-3.45-.09-5.18a18.06,18.06,0,0,1,.64-5.06,7.34,7.34,0,0,1,1.23-2.45,2.3,2.3,0,0,1,1.74-.95c1.74-.15,3.47-.32,5.21-.48l4.82-.46,3.48-.34c.21,0,.4-.13.6-.14.38,0,.57.16.69.57a5.2,5.2,0,0,0,4.6-2.21c.61-.87,1.08-1.84,1.63-2.75.35-.59.78-1.13,1.09-1.74a7.83,7.83,0,0,0,1.09-2.92c.07-.77,0-1.55,0-2.33a35,35,0,0,0-.16-4.46,2,2,0,0,1,1.13-2A6,6,0,0,1,145.11,0a1.09,1.09,0,0,1,1.19.55c.41.69.82,1.37,1.2,2.08a27.51,27.51,0,0,1,2.28,5.43,10,10,0,0,1,.27,3.58c-.09,1.06-.14,2.11-.18,3.17a2.14,2.14,0,0,0,.15.69.9.9,0,0,0,.93.72c1.28.08,2.55.26,3.81.4l3.68.4c1,.12,2.06.23,3.09.39a2.53,2.53,0,0,1,2.05,2.24,6.87,6.87,0,0,1-1,4.68,3.94,3.94,0,0,0-.51,1.08,6.35,6.35,0,0,0,0,1.63,12.4,12.4,0,0,1-.1,3.7,7.14,7.14,0,0,1-.43,1.2,2,2,0,0,0-.18,1.43,3.94,3.94,0,0,1-.34,2.55c-.32.84-.67,1.67-1,2.52a8.36,8.36,0,0,0-.3,1.22,2.5,2.5,0,0,1-2.28,2.24c-.66.11-1.34.15-2,.22l-3.35.31c-1.06.1-2.13.19-3.19.3l-3.78.37c-1,.1-2,.22-3,.3a2.28,2.28,0,0,1-1.94-.63c-.4-.4-.81-.81-1.24-1.19a8.61,8.61,0,0,0-4.41-2C134,39.49,133.46,39.47,132.94,39.43Zm.13-1.25,1,.07a9.39,9.39,0,0,1,4.72,1.66,22.21,22.21,0,0,1,2.16,1.85,1.16,1.16,0,0,0,1,.4l1.64-.17,3.27-.3,3.78-.36c.87-.08,1.73-.18,2.59-.25s1.95-.16,2.92-.24c.36,0,.73-.05,1.09-.11a1.38,1.38,0,0,0,1.33-1.33c0-.28.08-.56.14-.84a11.7,11.7,0,0,1,1-2.56,4,4,0,0,0,.49-2.51,2.75,2.75,0,0,1,.29-2,4.59,4.59,0,0,0,.5-2.05c0-.77,0-1.54,0-2.3,0-.46-.05-.92,0-1.37a4.12,4.12,0,0,1,.79-2.07,5.57,5.57,0,0,0,.77-4.24,1.27,1.27,0,0,0-1.11-1.06l-.92-.12-5-.65L150.51,17a.44.44,0,0,0-.25.06.68.68,0,0,1-.94-.19,3.71,3.71,0,0,1-.71-1.58A10.34,10.34,0,0,1,148.7,12a9.08,9.08,0,0,0-.28-4.11,29.66,29.66,0,0,0-3.07-6.46.3.3,0,0,0-.36-.15,4.63,4.63,0,0,0-1.75.68.81.81,0,0,0-.41.8c0,.52.1,1,.11,1.56,0,1.23.07,2.47.06,3.7a13.9,13.9,0,0,1-.19,2.5,13.28,13.28,0,0,1-.8,2.15,3.59,3.59,0,0,1-.45.87,24.51,24.51,0,0,0-1.81,3,7.67,7.67,0,0,1-2.11,2.62,5.56,5.56,0,0,1-4,1.21c-.2,0-.41-.07-.6-.1C133.2,26.24,133.15,32.21,133.07,38.18Zm-.92-12.43c0-.37,0-.72,0-1.08,0-1.5.07-3,.11-4.51,0-.24-.09-.27-.3-.24l-2.32.25-3.7.4-3.78.42-3.34.34a1.61,1.61,0,0,0-1.26.68,7.66,7.66,0,0,0-.41.68,10.36,10.36,0,0,0-1,4.13c0,.17,0,.34,0,.51a4.68,4.68,0,0,0,.53,0c1.45-.13,2.9-.26,4.35-.41l2.91-.3,2.91-.3,3.38-.36Z"/><path class="cls-2" d="M0,12l.18-.15c3.63.12,5.72.17,6.28.17s2.6-.05,6.31-.17l.17.15v1.1l-.17.15c-1,0-1.79.08-2.34.14a2.62,2.62,0,0,0-1.2.33,1.53,1.53,0,0,0-.5,1.13,19.47,19.47,0,0,0-.12,2.47l0,5.05v9.72c0,2.43,0,4.13,0,5.09L8.72,41h4.49q5.36,0,6.69-.13a9.08,9.08,0,0,0,2.56-.64,17.76,17.76,0,0,0,.69-2.52c.3-1.32.46-2.08.47-2.29l.2-.17H24.9l.15.17a32,32,0,0,0-.36,3.41c-.13,1.68-.19,3-.19,4.09l-.18.17q-4.17-.13-11-.13l-6.42,0c-1.46,0-3,.05-4.48.17l-.17-.17v-.73l.17-.22A8.9,8.9,0,0,0,4,41.06a15.42,15.42,0,0,0,.27-2.83q.13-2.68.14-6.46V22.34l0-4.28c0-1.67-.06-2.75-.12-3.23a2,2,0,0,0-.31-1,1.6,1.6,0,0,0-.8-.39,17.74,17.74,0,0,0-2.92-.25L0,13.07Z"/><path class="cls-2" d="M46.1,39.11l-.7,1.58a14,14,0,0,1-4.08,1.91,13.72,13.72,0,0,1-3.2.44,12.33,12.33,0,0,1-5-1,8.38,8.38,0,0,1-3.84-3.5,11.25,11.25,0,0,1-1.48-5.93,14.14,14.14,0,0,1,.57-4.16,10.55,10.55,0,0,1,1.19-2.76,9.44,9.44,0,0,1,2.12-2,14.33,14.33,0,0,1,3.17-1.76,9.68,9.68,0,0,1,3.6-.66,8.65,8.65,0,0,1,4.65,1.25,6.76,6.76,0,0,1,2.82,3.17,10.54,10.54,0,0,1,.82,4.11c0,.45,0,.89-.07,1.32l-.24.24a24.11,24.11,0,0,1-4,.44c-1.69.07-2.8.11-3.34.11H32c0,3,.8,5.27,2.29,6.7a7.59,7.59,0,0,0,5.49,2.15,8.46,8.46,0,0,0,3-.52,18.82,18.82,0,0,0,3-1.48ZM32,30.12c.27.05,1.28.1,3.05.16s3.07.08,3.92.08a32.32,32.32,0,0,0,3.71-.11c0-.35,0-.62,0-.81a7.78,7.78,0,0,0-1.38-5.06,4.64,4.64,0,0,0-3.78-1.66,4.88,4.88,0,0,0-4.07,1.86A8.86,8.86,0,0,0,32,30.12Z"/><path class="cls-2" d="M59.44,43l-1.37-3.45-1.62-3.76L51.94,25.35A4.35,4.35,0,0,0,51.16,24a1.28,1.28,0,0,0-.69-.39,9.3,9.3,0,0,0-1.41-.11l-.17-.18v-.94l.2-.2c2,.1,3.67.15,4.87.15,1.7,0,3.41-.05,5.12-.15l.18.17v1l-.18.18a7.81,7.81,0,0,0-2.65.31.77.77,0,0,0-.38.65,10.66,10.66,0,0,0,.88,2.84L59.61,34l2.11,5,2.2-5,1.82-4.53c.7-1.71,1.16-2.93,1.36-3.65a6.33,6.33,0,0,0,.31-1.43.64.64,0,0,0-.48-.6,10.38,10.38,0,0,0-2.44-.27l-.18-.18v-.94l.2-.2c1.82.1,3.18.15,4.09.15s2.06-.05,3.91-.15l.2.2v.94l-.18.18a4.3,4.3,0,0,0-1.72.37,2.58,2.58,0,0,0-.84,1q-.41.77-2.34,4.71L65.52,34.1Q65,35.24,61.72,43Z"/><path class="cls-2" d="M92.31,39.11l-.71,1.58A12.84,12.84,0,0,1,84.33,43a12.33,12.33,0,0,1-5-1,8.38,8.38,0,0,1-3.84-3.5A11.25,11.25,0,0,1,74,32.58a14.14,14.14,0,0,1,.57-4.16,10.52,10.52,0,0,1,1.2-2.76,9.44,9.44,0,0,1,2.12-2,14.11,14.11,0,0,1,3.17-1.76,9.68,9.68,0,0,1,3.6-.66,8.65,8.65,0,0,1,4.65,1.25,6.76,6.76,0,0,1,2.82,3.17,10.54,10.54,0,0,1,.81,4.11q0,.68-.06,1.32l-.24.24a24.11,24.11,0,0,1-4,.44c-1.69.07-2.8.11-3.34.11H78.22c0,3,.79,5.27,2.29,6.7A7.59,7.59,0,0,0,86,40.73a8.46,8.46,0,0,0,3-.52,18.82,18.82,0,0,0,3-1.48Zm-14.09-9c.27.05,1.28.1,3,.16s3.07.08,3.92.08a32.45,32.45,0,0,0,3.71-.11c0-.35,0-.62,0-.81a7.78,7.78,0,0,0-1.38-5.06,4.64,4.64,0,0,0-3.78-1.66,4.91,4.91,0,0,0-4.08,1.86A8.93,8.93,0,0,0,78.22,30.12Z"/><path class="cls-2" d="M102.66,10.32l.41.27q-.24,2.52-.24,10.13V34.49c0,.33,0,1.36.09,3.11a27.54,27.54,0,0,0,.19,3.07,1.32,1.32,0,0,0,.29.64,1,1,0,0,0,.49.25q.28.06,2.37.18l.2.18v.92l-.18.2c-1.83-.12-3.59-.17-5.29-.17s-3.45.05-5.28.17l-.2-.2v-.92l.2-.18c1.42-.08,2.23-.15,2.41-.19a1.07,1.07,0,0,0,.48-.28,1.16,1.16,0,0,0,.29-.63c0-.29.11-1.24.17-2.84s.1-2.82.1-3.64V22.78l-.09-4.66c0-1.62-.09-2.75-.14-3.38a2.93,2.93,0,0,0-.21-1.12.73.73,0,0,0-.46-.26,19.38,19.38,0,0,0-2.66-.09l-.2-.2v-.92l.18-.2A27.62,27.62,0,0,0,102.66,10.32Z"/><path class="cls-2" d="M172.1.21l.18-.21q5.44.24,6.28.24T184.87,0l.17.21V1.69l-.17.21q-1.51.06-2.34.18a2.41,2.41,0,0,0-1.2.44,2.47,2.47,0,0,0-.49,1.53,32.05,32.05,0,0,0-.13,3.34l0,6.83v9.44q0,4.66.14,6.84a15.77,15.77,0,0,0,.62,3.68,6.79,6.79,0,0,0,1.44,2.58,6.7,6.7,0,0,0,2.77,1.77,12.16,12.16,0,0,0,8.6-.22,7,7,0,0,0,3.2-2.63,10.76,10.76,0,0,0,1.43-4.53,67.36,67.36,0,0,0,.35-7.79V14.22c0-1.54,0-3.67-.06-6.37a27.7,27.7,0,0,0-.26-4.66,1.66,1.66,0,0,0-.77-.92A9.18,9.18,0,0,0,195,1.9l-.18-.24V.27L195,0c2.17.16,3.9.24,5.21.24,1.11,0,2.84-.08,5.18-.24l.2.24V1.66l-.2.24a15.29,15.29,0,0,0-2.69.22,1.57,1.57,0,0,0-.88.49,2.35,2.35,0,0,0-.37,1,37.18,37.18,0,0,0-.17,3.92l-.06,6.68v9c0,3.6-.11,6.44-.31,8.52a13.86,13.86,0,0,1-1.37,5.12A12.77,12.77,0,0,1,197,40.24a9.75,9.75,0,0,1-3.75,2.07,15.35,15.35,0,0,1-4.74.73,14.77,14.77,0,0,1-5.44-.92,9.29,9.29,0,0,1-5.68-5.62,15.46,15.46,0,0,1-.77-4q-.18-2.28-.18-6.93V14.22l0-5.79c0-2.26-.06-3.71-.12-4.36A3.41,3.41,0,0,0,176,2.76a1.46,1.46,0,0,0-.8-.53,14,14,0,0,0-2.92-.33l-.18-.21Z"/><path class="cls-2" d="M212.57,21.24l.42.27q-.23,2.5-.24,4.44,3-2.73,4.16-3.61a7.07,7.07,0,0,1,4.06-.88,10.2,10.2,0,0,1,3.27.5A7.84,7.84,0,0,1,227,23.58a8,8,0,0,1,2,2.84,9.86,9.86,0,0,1,.73,3.94,10.65,10.65,0,0,1-.51,3.21,13.42,13.42,0,0,1-1.33,3,8.67,8.67,0,0,1-1.31,1.84,13.91,13.91,0,0,1-2,1.35c-.92.55-1.84,1.15-2.74,1.8a14.31,14.31,0,0,1-1.32.88,5.65,5.65,0,0,1-1.25.39,8.06,8.06,0,0,1-1.87.2,9.92,9.92,0,0,1-4.55-1.16v4.68c0,.32,0,1.36.09,3.11s.12,2.77.18,3.06a1.36,1.36,0,0,0,.3.64.93.93,0,0,0,.48.25c.2,0,1,.1,2.38.19l.2.17v.93l-.18.19c-1.83-.11-3.59-.17-5.27-.17s-3.45.06-5.28.17l-.19-.19V54l.19-.17c1.41-.09,2.21-.16,2.4-.2a1,1,0,0,0,.49-.27,1.23,1.23,0,0,0,.29-.68c0-.3.11-1.28.17-2.94s.1-2.9.1-3.73V29.15c0-.76,0-1.64-.1-2.64a15.58,15.58,0,0,0-.16-1.75.68.68,0,0,0-.32-.4,2.67,2.67,0,0,0-1.13-.15l-1.85,0-.2-.18v-.94l.18-.18A27.53,27.53,0,0,0,212.57,21.24Zm.18,16.86a9.42,9.42,0,0,0,2.51,1.79,7.21,7.21,0,0,0,3.29.76,6.69,6.69,0,0,0,3.77-1.08,7,7,0,0,0,2.54-3.15,11.49,11.49,0,0,0,.9-4.61A9.11,9.11,0,0,0,225,28a6.24,6.24,0,0,0-2.49-2.77,6.85,6.85,0,0,0-3.57-1,6.5,6.5,0,0,0-2.26.41,6.89,6.89,0,0,0-2,1.2,6,6,0,0,0-1.38,1.5,2.83,2.83,0,0,0-.44,1.19c0,.31,0,.66,0,1Z"/></svg>