<svg width="77" height="48" viewBox="0 0 77 48" fill="none" xmlns="http://www.w3.org/2000/svg">
<path d="M0.206346 1H7.01587C7.94444 1 8.76984 1.10753 9.49206 1.43011C10.2143 1.64516 10.7302 2.07527 11.246 2.50538C11.6587 2.93549 12.0714 3.47312 12.2778 4.11828C12.4841 4.76344 12.5873 5.4086 12.5873 6.16129C12.5873 7.02151 12.381 7.77419 11.9683 8.52688C11.5556 9.27957 10.9365 9.92473 9.90476 10.4624C10.5238 10.6774 11.0397 11 11.4524 11.4301C11.8651 11.8602 12.1746 12.2903 12.381 12.7204C12.5873 13.1505 12.7937 13.6882 12.8968 14.2258C13 14.7634 13 15.1935 13 15.5161C13 16.3763 12.8968 17.0215 12.5873 17.7742C12.2778 18.5269 11.8651 19.0645 11.4524 19.4946C10.9365 19.9247 10.4206 20.3548 9.69842 20.5699C9.07937 20.7849 8.35715 21 7.63492 21H0V1H0.206346ZM10.2143 6.26882C10.2143 5.30108 9.90476 4.44086 9.38889 3.7957C8.76984 3.15054 7.84127 2.82796 6.5 2.82796H2.47619V9.49462H6.5C7.73809 9.49462 8.66667 9.17204 9.28572 8.63441C9.90476 8.09678 10.2143 7.34409 10.2143 6.26882ZM10.8333 15.3011C10.8333 14.871 10.7302 14.3333 10.627 13.9032C10.4206 13.4731 10.2143 13.043 9.90476 12.7204C9.59524 12.3978 9.18254 12.0753 8.66667 11.8602C8.1508 11.6452 7.63492 11.5376 7.01587 11.5376H2.57937V19.0645H7.01587C7.73809 19.0645 8.25397 18.957 8.76984 18.7419C9.28572 18.5269 9.69841 18.3118 9.90476 17.8817C10.2143 17.5591 10.4206 17.129 10.5238 16.6989C10.7302 16.2688 10.8333 15.7312 10.8333 15.3011Z" fill="black"/>
<path d="M20 21H17V0H20V21Z" fill="black"/>
<path d="M27 2.55556C27 3 26.8966 3.33334 26.5862 3.66667C26.2759 4 25.9655 4.11111 25.4483 4.11111C25.0345 4.11111 24.7241 4 24.4138 3.66667C24.1034 3.33334 24 3 24 2.55556C24 2.11111 24.1034 1.66667 24.4138 1.44445C24.7241 1.11111 25.0345 1 25.4483 1C25.8621 1 26.2759 1.11111 26.5862 1.44445C26.8966 1.77778 27 2.11111 27 2.55556ZM24.3103 21V6.33333H26.5862V21H24.3103Z" fill="black"/>
<path d="M34.0909 3V6.6H38.1818V8.34546H34.0909V16.8545C34.0909 17.5091 34.1932 18.0545 34.5 18.4909C34.7045 18.9273 35.2159 19.1455 36.0341 19.1455C36.6477 19.1455 37.4659 18.9273 38.5909 18.6L39 20.2364C38.4886 20.4545 37.9773 20.6727 37.3636 20.7818C36.75 20.8909 36.2386 21 35.625 21C33.1705 21 31.9432 19.8 31.9432 17.5091V8.23636H30V6.92727L32.0455 6.27273L32.7614 3.10909L34.0909 3Z" fill="black"/>
<path d="M44.3143 19.303H53V21H41V19.5152L49.4571 8.90909L49.3429 8.69697H41.9143V7H52.6571V8.48485L44.3143 19.0909V19.303Z" fill="black"/>
<path d="M0 46.8925V27H11.5862V28.9355H2.27586V35.4946H10.1379V37.3226H2.27586V45.0645H12V47H0V46.8925Z" fill="black"/>
<path d="M16.8889 44.3235C17.7778 44.7353 18.6667 44.9412 19.4444 45.0441C20.2222 45.1471 20.8889 45.25 21.4444 45.25C21.8889 45.25 22.3333 45.25 22.7778 45.1471C23.2222 45.0441 23.5556 44.9412 23.8889 44.7353C24.2222 44.5294 24.4444 44.3235 24.5556 44.1176C24.7778 43.8088 24.7778 43.5 24.7778 43.0882C24.7778 42.7794 24.6667 42.4706 24.5556 42.1618C24.3333 41.9559 24.1111 41.6471 23.8889 41.5441C23.5556 41.3382 23.2222 41.2353 22.8889 41.1324C22.5556 41.0294 22.1111 40.8235 21.6667 40.7206C21 40.5147 20.4444 40.3088 19.7778 40.1029C19.2222 39.8971 18.6667 39.6912 18.2222 39.3824C17.7778 39.0735 17.4444 38.7647 17.1111 38.3529C16.7778 37.9412 16.6667 37.4265 16.6667 36.8088C16.6667 36.1912 16.7778 35.5735 17.1111 35.1618C17.4444 34.75 17.7778 34.2353 18.2222 33.9265C18.6667 33.6176 19.2222 33.4118 19.8889 33.2059C20.5556 33.1029 21.2222 33 22 33C22.3333 33 22.6667 33 23 33.1029C23.3333 33.1029 23.7778 33.2059 24.1111 33.3088C24.5556 33.4118 24.8889 33.5147 25.2222 33.6176C25.5556 33.7206 26 33.9265 26.2222 34.0294L25.4445 35.5735C24.6667 35.2647 24 35.0588 23.4444 34.9559C22.8889 34.8529 22.3333 34.8529 21.7778 34.8529C21.4444 34.8529 21 34.8529 20.6667 34.9559C20.3333 35.0588 20 35.1618 19.7778 35.2647C19.5556 35.4706 19.3333 35.6765 19.1111 35.8824C18.8889 36.1912 18.8889 36.5 18.8889 36.8088C18.8889 37.1176 19 37.3235 19.2222 37.5294C19.4444 37.7353 19.6667 37.9412 20 38.1471C20.3333 38.3529 20.6667 38.4559 21 38.5588C21.3333 38.6618 21.6667 38.7647 22 38.8676C22.6667 39.0735 23.2222 39.2794 23.7778 39.4853C24.3333 39.6912 24.8889 39.8971 25.4445 40.2059C25.8889 40.5147 26.3333 40.9265 26.5556 41.3382C26.8889 41.75 27 42.3676 27 43.0882C27 43.8088 26.8889 44.3235 26.5556 44.8382C26.2222 45.3529 25.8889 45.7647 25.3333 46.0735C24.7778 46.3824 24.2222 46.5882 23.5556 46.7941C22.8889 46.8971 22.1111 47 21.2222 47C20.7778 47 20.3333 47 19.8889 46.8971C19.4444 46.8971 19 46.7941 18.4444 46.6912C18 46.5882 17.5556 46.4853 17.1111 46.3824C16.6667 46.2794 16.3333 46.0735 16 45.9706L16.8889 44.3235Z" fill="black"/>
<path d="M33.1461 30V33.4H37.191V35.0485H33.1461V43.0848C33.1461 43.703 33.2472 44.2182 33.5506 44.6303C33.7528 45.0424 34.2584 45.2485 35.0674 45.2485C35.6742 45.2485 36.4831 45.0424 37.5955 44.7333L38 46.2788C37.4944 46.4848 36.9888 46.6909 36.382 46.7939C35.7753 46.897 35.2697 47 34.6629 47C32.236 47 31.0225 45.8667 31.0225 43.703V34.9455H29V33.7091L31.0225 33.0909L31.7303 30.103L33.1461 30Z" fill="black"/>
<path d="M50.8889 45.0441H52.8889L53 46.3824C52.6667 46.5882 52.2222 46.6912 51.7778 46.7941C51.3333 46.8971 50.8889 46.8971 50.4444 46.8971C49.8889 46.8971 49.4444 46.7941 49.1111 46.5882C48.7778 46.3824 48.6667 45.8677 48.5556 45.25C48 45.6618 47.4444 46.0735 46.8889 46.2794C46.3333 46.4853 45.8889 46.6912 45.4444 46.7941C45 46.8971 44.6667 47 44.2222 47C43.8889 47 43.5555 47 43.3333 47C42.4444 47 41.7778 46.8971 41.2222 46.5882C40.6667 46.2794 40.2222 45.9706 39.8889 45.6618C39.5556 45.25 39.3333 44.8382 39.2222 44.4265C39.1111 44.0147 39 43.6029 39 43.1912C39 41.9559 39.4444 41.0294 40.3333 40.3088C41.2222 39.5882 42.6667 39.1765 44.5556 39.0735L48.3333 38.8676V38.0441C48.3333 36.9118 48.1111 36.0882 47.6667 35.6765C47.2222 35.2647 46.4444 34.9559 45.2222 34.9559C44.5556 34.9559 43.7778 35.0588 43 35.1618C42.2222 35.2647 41.4444 35.4706 40.6667 35.6765L40.3333 34.1324C41.2222 33.8235 42.1111 33.5147 43.1111 33.3088C44.1111 33.1029 45.1111 33 46 33C47.5556 33 48.7778 33.3088 49.6667 34.0294C50.5556 34.6471 51 35.8824 51 37.5294V45.0441H50.8889ZM44.7778 40.5147C43.7778 40.5147 43 40.8235 42.5556 41.2353C42.1111 41.6471 41.8889 42.2647 41.8889 42.8824C41.8889 43.7059 42.1111 44.2206 42.5556 44.6323C43 45.0441 43.6667 45.25 44.6667 45.25C45.3333 45.25 46 45.1471 46.6667 44.8382C47.3333 44.5294 48 44.1176 48.6667 43.5V40.3088L44.7778 40.5147Z" fill="black"/>
<path d="M58.0909 30V33.4H62.1818V35.0485H58.0909V43.0848C58.0909 43.703 58.1932 44.2182 58.5 44.6303C58.7045 45.0424 59.2159 45.2485 60.0341 45.2485C60.6477 45.2485 61.4659 45.0424 62.5909 44.7333L63 46.2788C62.4886 46.4848 61.9773 46.6909 61.3636 46.7939C60.75 46.897 60.2386 47 59.625 47C57.1705 47 55.9432 45.8667 55.9432 43.703V34.9455H54V33.7091L56.0455 33.0909L56.7614 30.103L58.0909 30Z" fill="black"/>
<path d="M71.2703 33C72.2432 33 73 33.1087 73.6486 33.4348C74.2973 33.6522 74.8378 33.9783 75.2703 34.413C75.7027 34.8478 76.027 35.2826 76.2432 35.8261C76.4594 36.3696 76.6757 36.8043 76.7838 37.3478C76.8919 37.8913 77 38.3261 77 38.7609C77 39.1957 77 39.6304 77 39.8478V41.0435H67.4865C67.4865 41.6957 67.5946 42.3478 67.7027 43C67.8108 43.6522 68.027 44.087 68.3513 44.6304C68.6757 45.0652 69.1081 45.5 69.6486 45.7174C70.1892 46.0435 70.8378 46.1522 71.5946 46.1522C72.4595 46.1522 73.2162 46.0435 73.8649 45.9348C74.5135 45.7174 75.2703 45.5 76.1351 45.1739L76.6757 46.6957C75.8108 47.1304 74.9459 47.4565 74.0811 47.6739C73.2162 47.8913 72.3513 48 71.3784 48C70.0811 48 69.1081 47.7826 68.2432 47.4565C67.3784 47.0217 66.7297 46.587 66.2973 45.9348C65.8649 45.2826 65.5405 44.5217 65.3243 43.6522C65.1081 42.7826 65 41.8043 65 40.8261C65 40.3913 65 39.9565 65.1081 39.413C65.2162 38.8696 65.3243 38.3261 65.4324 37.7826C65.6486 37.2391 65.8649 36.6957 66.0811 36.1522C66.4054 35.6087 66.7297 35.1739 67.2703 34.7391C67.7027 34.3044 68.2432 33.9783 69 33.7609C69.6486 33.2174 70.4054 33 71.2703 33ZM71.3784 34.8478C70.7297 34.8478 70.0811 34.9565 69.6486 35.2826C69.2162 35.5 68.7838 35.8261 68.4595 36.2609C68.1351 36.6957 67.9189 37.2391 67.8108 37.7826C67.7027 38.3261 67.5946 38.9783 67.4865 39.5217H74.7297C74.7297 38.8696 74.6216 38.2174 74.5135 37.6739C74.4054 37.1304 74.1892 36.587 73.973 36.1522C73.7568 35.7174 73.3243 35.3913 72.8919 35.1739C72.5676 34.9565 72.027 34.8478 71.3784 34.8478Z" fill="black"/>
</svg>
